#!OML:ASF E:/inclinewalkrobotboard/Project1/Captureday1/Session1/subject1.ASF
:FULLY-SPECIFIED
:DEGREES
363
root 0 0 0 -1.6705392623540543 -5.288936926801001 -7.102344016617436
lowerback 11.483653133617576 1.8714373616686482 6.571628840613244
upperback 0.8215250020450725 3.3976347364180786 2.205937173241715
thorax -5.335032321563897 1.5431084181825008 -1.8856322140138393
lowerneck -17.524697070921594 -3.5288653077196703 -1.6082150503425092
upperneck 19.49320025787966 -4.465963795620371 0.3225412858589187
head 9.076358251150461 -2.188718273676186 -0.20169677843233885
rclavicle 2.3251050506917444E-15 -8.132596786067474E-16
rhumerus -27.85869090632238 -17.527958497321187 -77.83067442067129
rradius 29.77945049413967
rwrist 0.08831882483286524
rhand -19.31991132649503 24.619561860423694
rfingers 7.125020000000017
rthumb 6.998992445147378 -5.292983456700544
lclavicle -1.4434561700501912E-15 -2.83770480596905E-16
lhumerus -35.37901453514941 -0.45557420261031434 84.76584300455274
lradius 27.654816950193748
lwrist 6.332913413113474
lhand -27.273286671729593 23.826356043614872
lfingers 7.125020000000017
lthumb -0.6760690699804295 53.81879647982613
rfemur 10.35616001090116 8.303732194016664 35.22009113773252
rtibia 26.18848561490729
rfoot -21.16452705116117 -5.723842464899716
rtoes -1.1117618124775774
lfemur -26.455393084717784 -4.397225301139892 -11.27111427521643
ltibia 20.17485455917067
lfoot -5.456161029315297 4.619087514858738
ltoes -1.7590416986570219
364
root 0 0 0 -1.9223264299702847 -5.2517393901221565 -6.8204879534763405
lowerback 11.598697162295357 1.8917138372977327 6.239099850267016
upperback 0.7269567056515478 3.389274811449816 2.1202755433523808
thorax -5.511141719435121 1.544215782300545 -1.791555665742611
lowerneck -17.308216928462727 -3.5992524093973737 -1.5678482009361412
upperneck 19.44749967455236 -4.6054507735383154 0.43926190547382493
head 9.056368341437786 -2.2357174916643414 -0.18162430705364419
rclavicle 1.6137154994096533E-15 -2.2003898664391847E-15
rhumerus -28.153881509632622 -18.277510856777234 -77.53451117656051
rradius 29.435543778273253
rwrist 0.412894710206432
rhand -19.304734765406533 24.44048300530446
rfingers 7.125020000000017
rthumb 7.014584243995838 -5.480657146772007
lclavicle -2.2656899113069196E-15 -1.9356136441209116E-15
lhumerus -35.67746455930574 0.11929325160405663 84.50821488908213
lradius 27.01017871071565
lwrist 5.914999263884065
lhand -27.219145463133106 24.004052033131046
lfingers 7.125020000000018
lthumb -0.6238729698332852 54.00340595512333
rfemur 12.355109352050853 8.24080724885142 35.66835169762897
rtibia 27.971282102053923
rfoot -19.815072301729977 -4.505803639713359
rtoes -4.654320489117521
lfemur -25.98742040259637 -4.463014139495485 -11.684862166350655
ltibia 20.536029901166078
lfoot -5.507577794272899 4.265832276245165
ltoes -1.4967998037018475
365
root 0 0 0 -2.107107618955151 -5.1958097874787645 -6.367184251487601
lowerback 11.570462733914757 1.9308356995578042 5.755861212920062
upperback 0.6061721879810811 3.380333702941604 1.9604564554046313
thorax -5.635293433599572 1.5480726501253104 -1.6876577319494284
lowerneck -16.987428247365685 -3.648054127963981 -1.4912092298015718
upperneck 19.51161083471471 -4.729714097017428 0.580181047898124
head 9.057035610809942 -2.270057654181171 -0.15590132427680697
rclavicle 8.730429009435416E-16 -2.369466817281734E-15
rhumerus -28.69911443934742 -19.40218165367947 -77.09458582409601
rradius 28.887974693035268
rwrist 0.8489147613828356
rhand -19.27798064237947 24.137713174723043
rfingers 7.125020000000017
rthumb 7.040767687307489 -5.792726203715496
lclavicle -2.9958686970147714E-15 -2.3686079759074113E-15
lhumerus -35.94540558037451 0.9273298310940513 84.11874869828516
lradius 26.211972662516825
lwrist 5.441755742353637
lhand -27.09264636195732 24.28868309028984
lfingers 7.125020000000019
lthumb -0.5019717342846466 54.294448774172196
rfemur 10.89930058972335 6.701855366843841 33.39019339711045
rtibia 34.10581128051979
rfoot -15.251736129338848 -2.6854579785576336
rtoes -5.164201441185731
lfemur -25.114303825105406 -3.9630860996560413 -13.06514351537052
ltibia 21.917815581491944
lfoot -5.186331798758845 3.05408373647747
ltoes -0.5602953135539366
366
root 0 0 0 -2.173281703026325 -5.186152052819976 -5.375947539640453
lowerback 11.197955181754729 2.041960080194039 4.81250420449088
upperback 0.4524618807792715 3.389803858237266 1.5969847088211946
thorax -5.603603021797792 1.5711550821578975 -1.5350451758769177
lowerneck -16.425500843219687 -3.6213548197316956 -1.34202276060814
upperneck 19.6891249206457 -4.778898612561608 0.7967968686343707
head 9.052959774070613 -2.258560998333328 -0.10483309789566292
rclavicle 8.963227904669302E-16 -2.0798194097057206E-15
rhumerus -29.354763849134898 -20.584310472542207 -76.64846489177506
rradius 28.315113871677994
rwrist 1.2854841705983064
rhand -19.219649799564216 23.77962861683199
rfingers 7.125020000000019
rthumb 7.0966642528292345 -6.152495880618183
lclavicle -2.8852571154034913E-15 -2.311134818666353E-15
lhumerus -36.16106797022022 1.857750343305344 83.69514667481994
lradius 25.38277472541791
lwrist 4.926733716608698
lhand -26.89726782116769 24.5134180135349
lfingers 7.12502000000002
lthumb -0.3136932006378865 54.52368949482573
rfemur 1.7538465926092952 4.21253786256949 26.33088580210972
rtibia 40.9047064546573
rfoot -3.3632030538626188 -0.7596034054051963
rtoes -0.9841599626557624
lfemur -22.588069756896175 -3.057697582631777 -17.00566688792226
ltibia 25.155947290557016
lfoot -4.594017685944621 0.2404362004474634
ltoes 4.1297307417783955
367
root 0 0 0 -2.5435794311463633 -5.165973341333233 -3.1561154110778857
lowerback 10.761657831092057 2.103226132467348 2.9595442679170576
upperback 0.38482944723134066 3.212158254073792 1.022303379405123
thorax -5.4704717916763705 1.524254307257337 -1.0671397817036903
lowerneck -16.2455367480044 -3.5485682761431114 -1.4809207912820206
upperneck 20.683672825743848 -4.703278462120734 0.9538131318644999
head 9.355377400070225 -2.2100348092372273 -0.026031495915279645
rclavicle 1.2108700868156055E-15 -2.5476709727971734E-15
rhumerus -30.009678115749484 -21.636423454707042 -76.31924106697852
rradius 27.65831241570852
rwrist 1.7989808769776685
rhand -19.099014318034204 23.429053370819528
rfingers 7.125020000000021
rthumb 7.212298526364729 -6.496118382858413
lclavicle -2.7543631439761854E-15 -3.056963457678047E-15
lhumerus -36.16896383766083 2.519989275473011 83.35438813149298
lradius 24.810915570791252
lwrist 4.587322998298379
lhand -26.775786502621777 24.420724680200372
lfingers 7.125020000000022
lthumb -0.1968374429716322 54.43541662882151
rfemur -5.768439169142022 3.2807256681356227 27.330686151885434
rtibia 66.90449787134509
rfoot 12.242593871218595 -1.44094721901595
rtoes 14.871203617290256
lfemur -19.783734161480627 -2.185802073673722 -20.73637465715025
ltibia 28.26421031680726
lfoot -4.254574806521637 -2.2141848469661993
ltoes 8.149333067962552
368
root 0 0 0 -3.919900000915803 -4.584125304093673 -0.27684328624566445
lowerback 10.692095118160891 1.6271432731986528 0.09440486229997513
upperback 0.4541473499557772 2.2033534232566216 0.5788482093809004
thorax -5.476009675813705 1.0921276944148346 0.22620003360306223
lowerneck -16.051287687240436 -3.184287452400742 -1.6139337947014896
upperneck 21.517314046744616 -4.1730392313578 0.8458646739459201
head 9.564555392083847 -1.9813743757600817 0.017947420003762427
rclavicle 1.2918617135120298E-15 -1.4800286760765409E-15
rhumerus -30.691118042096363 -22.422590541530013 -76.19586192907455
rradius 27.00598233235428
rwrist 2.252030098821664
rhand -19.017778597188084 23.170050960861417
rfingers 7.125020000000021
rthumb 7.290530977951285 -6.750431742729322
lclavicle -2.4416040964562677E-15 -1.8285816375183524E-15
lhumerus -35.78437340409331 1.9418102319280472 83.42254203663953
lradius 25.284064642731984
lwrist 5.091534334674014
lhand -27.027805827160215 24.220784570594656
lfingers 7.125020000000023
lthumb -0.43729832646308786 54.23263020522286
rfemur -7.735331453362077 2.8711068597735836 28.212736073356375
rtibia 73.17639630184317
rfoot 13.111664841058214 -2.3682996756254973
rtoes 17.97453123516126
lfemur -17.37787522657869 -2.362688673021167 -21.744441603187965
ltibia 28.651638770273827
lfoot -5.510199811582684 -1.9690060404426108
ltoes 7.659624051962851
369
root 0 0 0 -5.142865524086327 -3.888451390648568 0.9486097746047313
lowerback 11.07253971218516 1.0297574925306774 -1.2956233284216945
upperback 0.6988165336889911 1.242249902888159 0.5169315525105467
thorax -5.524275903961015 0.647144706992304 1.0859373032873292
lowerneck -16.61788018969967 -2.9293514933779723 -1.8575594711214043
upperneck 21.384390891307355 -3.744622311906501 0.5161329168184288
head 9.564976344843787 -1.8167567169624277 -0.011530016672584464
rclavicle 7.838761663105859E-16 -3.6301538565325184E-17
rhumerus -31.512498760461728 -23.234571327957724 -76.1790693879838
rradius 26.124351815886406
rwrist 2.88047109716656
rhand -18.891364175129596 22.93188060033001
rfingers 7.125020000000021
rthumb 7.412697995049857 -6.9915510594229
lclavicle -2.481392311680637E-15 1.8895911837060038E-16
lhumerus -35.35932726326075 0.9754167789224395 83.5433619154138
lradius 26.06032253718991
lwrist 5.607633357875931
lhand -27.219254935822235 24.423864090194225
lfingers 7.125020000000025
lthumb -0.620227779741243 54.43381740632718
rfemur -15.568988101179677 0.2418079879668471 25.298773211805532
rtibia 80.74250267705625
rfoot 6.853034713916703 -5.417469969213855
rtoes 14.000435958041958
lfemur -10.488252584737491 -2.882916796246133 -23.65684099176567
ltibia 28.234056193963045
lfoot -10.36344169915283 -0.5566271334794943
ltoes 1.247979730599969
370
root 0 0 0 -5.243617965883963 -3.2819361650376275 1.2675743013415057
lowerback 11.476866256712405 0.6562233491577598 -1.7873608717342113
upperback 0.8693914233827661 0.6984020276000952 0.5846733925423633
thorax -5.603596207366218 0.3939237820418103 1.5110233459458127
lowerneck -16.669593591002542 -2.791887310334639 -2.026247074850052
upperneck 20.48987637998753 -3.465207185564745 0.37918477837196063
head 9.26452054359273 -1.7243760817901683 0.016383580040115753
rclavicle 6.701131902493728E-16 1.149324697960648E-16
rhumerus -31.83704849246962 -23.612519939990563 -76.1728120291747
rradius 25.736609997189873
rwrist 3.112880693848582
rhand -18.86532738554323 22.819784134257485
rfingers 7.1250200000000214
rthumb 7.437594316420454 -7.108677031396656
lclavicle -2.5315757472320626E-15 8.093339289921081E-16
lhumerus -34.34423213685141 -0.5026750025381826 83.70433034379639
lradius 27.38353273468341
lwrist 6.193146715894681
lhand -27.385791299942873 24.307867727434992
lfingers 7.125020000000027
lthumb -0.7813819188577389 54.30859528180306
rfemur -25.992746061461986 -0.7273521495046009 22.123914457771328
rtibia 67.62763410640542
rfoot -4.40820704896216 -7.069877854005255
rtoes 7.493850837484943
lfemur -3.8227277428336457 -3.3068871244664324 -25.484482156916194
ltibia 27.58205097648705
lfoot -14.855290498610008 0.7717104731596844
ltoes -4.186051590465468
